:SAMPLES-PER-SECOND 30
:FRAME-RANGE 1-1086
:FULLY-SPECIFIED
:DEGREES
611
root  100.012 37.5587 42.9321 -177.957 38.3681 -177.998
RightUpLeg  15.2299 0.309986 -5.14044
RightLeg  24.7037 9.10568 4.33541
RightFoot  -19.3985 0.537831 9.48936
RightToes  1.21801e-010 1.2921e-014 -6.02303e-014
Spine  -6.0814 4.03778 8.18326
Spine1  9.99929 5.29347 -7.23267
HEad  25.3157 46.724 3.98084
LeftShoulder1  0.384223 1.91071 -21.4188
LeftArm  -7.46116 19.4471 -53.6823
LeftForeArm  32.7324 7.71938 -11.9886
LeftHand  -0.0170876 5.80833 3.07462
RightShoulder  2.10613 5.17005 18.4126
RightArm  -19.1539 33.1058 55.2524
RightForeArm  51.2578 3.84092 5.40568
RightHand  -0.0153981 -5.36204 -19.5161
LeftUpLeg  -28.383 -1.47424 -2.36121
LeftLeg  8.27033 21.8783 4.25814
LeftFoot  0.950976 -0.515203 4.7283
LeftToes  3.79492e-011 -8.60219e-011 1.56273e-011
612
root  100.841 37.5275 41.141 179.968 38.5528 179.15
RightUpLeg  11.963 1.67178 -9.21505
RightLeg  35.9676 11.6997 8.75085
RightFoot  -13.2687 0.141606 13.7364
RightToes  1.21801e-010 1.2921e-014 -6.02303e-014
Spine  -5.34876 4.28036 5.91937
Spine1  9.0472 5.75227 -8.45377
HEad  26.785 47.6907 5.84434
LeftShoulder1  0.290447 2.26885 -21.9288
LeftArm  -7.40776 18.8462 -52.5717
LeftForeArm  33.5697 7.75978 -12.3339
LeftHand  -0.00562286 6.28366 3.21384
RightShoulder  2.21167 5.13542 19.8754
RightArm  -19.7435 30.1062 54.9543
RightForeArm  49.6992 4.15242 5.53565
RightHand  -0.0756657 -5.01798 -20.6914
LeftUpLeg  -28.3201 -1.33079 -5.07069
LeftLeg  14.2605 21.6024 5.97339
LeftFoot  3.09703 -0.515976 3.92369
LeftToes  3.79492e-011 -8.60219e-011 1.56273e-011
613
root  101.629 37.5538 39.3814 179.078 36.5679 177.703
RightUpLeg  5.75678 1.82477 -11.159
RightLeg  49.8357 9.10315 11.0528
RightFoot  -2.28779 -1.2641 15.6774
RightToes  1.21801e-010 1.2921e-014 -6.02303e-014
Spine  -5.48899 3.90352 4.9279
Spine1  8.80386 5.48631 -8.94852
HEad  26.5593 47.7673 6.03008
LeftShoulder1  0.379186 1.9598 -22.0905
LeftArm  -8.17002 16.5481 -52.4915
LeftForeArm  35.4978 7.71609 -12.2591
LeftHand  0.00323376 6.71102 3.14557
RightShoulder  2.19799 5.02727 20.0631
RightArm  -21.3493 26.039 55.528
RightForeArm  49.8721 4.16445 5.04373
RightHand  -0.0809407 -4.99319 -21.0265
LeftUpLeg  -27.5023 1.25913 -8.49165
LeftLeg  17.9351 16.9562 5.90267
LeftFoot  3.09554 -0.65655 5.03208
LeftToes  3.79492e-011 -8.60219e-011 1.56273e-011
614
root  102.329 37.6309 37.7624 177.96 34.1687 176.742
RightUpLeg  -0.484698 2.15717 -11.6325
RightLeg  61.3576 4.91366 9.18518
RightFoot  8.11805 -2.34921 13.9661
RightToes  1.21801e-010 1.2921e-014 -6.02303e-014
Spine  -5.22504 3.51347 3.92757
Spine1  9.29193 5.07019 -9.13685
HEad  26.5414 47.9694 5.29422
LeftShoulder1  0.476455 1.62114 -22.2025
LeftArm  -8.65667 13.4815 -52.927
LeftForeArm  36.6705 7.6767 -12.1397
LeftHand  0.00137524 6.85828 2.77882
RightShoulder  2.18391 4.88619 20.3647
RightArm  -22.1124 21.9332 55.4164
RightForeArm  51.0618 3.19633 4.88912
RightHand  -0.0366514 -5.23724 -20.5201
LeftUpLeg  -25.2937 -1.1369 -10.4287
LeftLeg  20.5021 16.6202 6.87473
LeftFoot  1.8836 -0.925725 7.87347
LeftToes  3.79492e-011 -8.60219e-011 1.56273e-011
615
root  103.015 37.7903 36.1846 176.921 31.2041 175.803
RightUpLeg  -5.33147 2.41395 -12.1221
RightLeg  69.5325 2.60315 6.9749
RightFoot  5.78921 -1.9972 13.469
RightToes  1.21801e-010 1.2921e-014 -6.02303e-014
Spine  -5.22223 2.95682 1.91862
Spine1  9.78619 4.15248 -8.11854
HEad  28.1753 48.3711 5.36293
LeftShoulder1  0.483307 1.62042 -22.6208
LeftArm  -7.80453 10.2984 -53.2986
LeftForeArm  36.5564 7.72284 -12.4251
LeftHand  0.00252132 7.03847 2.633
RightShoulder  2.14473 4.43259 21.4901
RightArm  -21.7503 18.3488 54.2851
RightForeArm  53.7477 0.30996 5.01034
RightHand  0.0167691 -5.54155 -20.441
LeftUpLeg  -22.1263 -4.10579 -12.3131
LeftLeg  21.7468 16.9071 7.5045
LeftFoot  -0.531443 -0.797062 8.44164
LeftToes  3.79492e-011 -8.60219e-011 1.56273e-011
